<?xml version="1.0" encoding="utf-8"?>
<!-- Generator: Adobe Illustrator 19.0.0, SVG Export Plug-In . SVG Version: 6.00 Build 0)  -->
<svg version="1.1" id="Layer_1" xmlns="http://www.w3.org/2000/svg" xmlns:xlink="http://www.w3.org/1999/xlink" x="0px" y="0px"
	 viewBox="944 22 2978 749" style="enable-background:new 944 22 2978 749;" xml:space="preserve">
<style type="text/css">
	.st0{fill:#443642;}
	.st1{fill:#70CADB;}
	.st2{fill:#E01765;}
	.st3{fill:#E8A723;}
	.st4{fill:#3EB890;}
	.st5{fill:#CC2027;}
	.st6{fill:#361238;}
	.st7{fill:#65863A;}
	.st8{fill:#1A937D;}
</style>
<title>background</title>
<title>Layer 1</title>
<g>
	<g>
		<path class="st0" d="M1833.7,341.3c0-74.4,54.2-126.3,152.8-126.3c60.1,0,109.3,19.2,136,38c3.8,2.7,10.6,9.2,6.5,21.3
			c-5.2,13-14.8,32.7-21.7,45.4c-4,7.4-14.2,6.4-19.5,3.8c-19-9.6-50.1-25.9-78.7-28.9c-7.2-0.8-14.5-1.1-21.8-0.9
			c-25.2,0.6-46.2,9.3-53.7,28.5c-1.5,3.6-2.3,7.5-2.4,11.4c-0.7,25.3,34.6,34.5,77.3,41.8C2087.9,389,2148,412.3,2148,494
			c0,69.4-55.1,132.1-163.2,130.2c-71.2-1.4-121.8-25.5-148.9-48.9c-0.9-0.8-11.2-11.3-5.7-23.9c6.3-16.3,17-34.9,25.4-44.8
			c4.7-6.4,16.9-7.4,23.3-3.4c22.3,13.9,59.1,36.1,101.4,37.6c3.3,0.1,6.7,0.1,9.9,0.1c38.1-0.9,61.1-15.4,60.7-39.7
			c-0.4-21.4-30.6-34-78.7-43C1895.5,443.7,1833.8,418.4,1833.7,341.3 M2530.6,447.2c-54.1,0.7-103.7,15.5-105.1,57.8
			c0,33.5,27.2,50,65.4,47.9c36.6-3.5,64.6-19.4,76.9-40.5c4.6-7.8,5.2-37.1,5-49.5c-0.1-2.7-5.3-7.7-7.6-8.7
			C2553.6,449.2,2545.1,447.7,2530.6,447.2 M2350.6,276.8c25.3-22.6,75.4-57.9,155.4-56c105.5,2.2,161.2,51.6,166.4,169.9
			c2.1,48.8-1.4,184.8-2.2,218.7c-0.1,4.9-1.8,8.2-8.3,8.4c-17.4,0.7-57.5,0.4-75.9,0.2c-9.3-0.5-10.4-5.1-10.5-9.9
			c-0.1-3.2-0.4-12.5-0.5-20.2c-0.1-4.1-3.9-3.9-4.9-2.9c-24.7,26.4-65.3,39.2-108.4,39.2c-65.5,0-130.8-38.5-130.6-114.8
			c0.2-78.1,55.6-116.7,116.5-125.8c39-5.8,82.9-0.6,116.2,12.6c2.1,0.9,6.5-0.4,6.5-3.4c0.1-10-0.3-28.9-2.3-37.9
			c-4.9-22.9-24-41.4-64.2-46.3c-8.3-1-16.6-1.4-24.9-0.7c-31.9,2.5-70.3,27.4-86.2,36.7c-3.7,2.2-9.6,0.6-11.5-1.9
			c-9.3-12-32.6-47.1-34.5-52.7C2344.7,284.5,2347.3,279.8,2350.6,276.8L2350.6,276.8L2350.6,276.8z M2707.1,422.3
			c-0.6-109,75.3-200.9,198.6-201.7c76.9-0.5,132.8,34.4,142.7,50.8c2,3.9,1,7.1-0.4,11c-6.5,13.8-23,40.3-34.7,55.4
			c-5,6.4-10.4,0.9-16.7-3.3c-17.5-11.6-50.7-25.9-83.4-25.9c-59.3,0-103.5,40.7-103,115.5c0.5,71.8,42.8,111.2,103.2,112.7
			c31.6,0.8,62.2-17.4,78.6-32.2c5.2-4.5,10.5-2.3,16.4,2.4c11.6,11.8,28.2,30.1,37.4,42.7c6,7,1.5,13.8-0.7,16.6
			c-25,31.7-73.3,58.3-137.3,58.7C2774.2,625.8,2707.8,531.7,2707.1,422.3 M3346.1,620c6.3-0.5,73.3-9.7,93.9-14.4
			c5.1-1.2,6.9-5.5,4.1-9.7c-11.5-17.2-41.7-66.2-73.4-110c-29.1-40.3-59.8-75.7-69.7-89.3c-2.4-3.3-2.3-6.6,0.3-9.1
			c18.9-18.5,97.8-95.9,127.5-127.8c11.5-12.4,4.6-17.8-5.2-20.7c-18.9-5.6-49.4-12.6-66.7-16.3c-7.3-1.5-16.1-1-22.5,5.6
			c-29.7,27.7-120.3,118.6-147.3,145.8c-4.9,4.9-7.7,3.8-7.7-3.2c-0.2-52.4-1.3-276.7-3.1-313.6c-0.1-4.9-6-8.6-9.3-8.8
			c-17-0.9-60-1.1-76.9-0.2c-4.7,0.5-9.3,5.4-9.7,9.5c-3.9,59,1.7,492.1,4,552.7c0.2,4.4,3.4,7.8,7.6,8c16.9,1,58.7,0.9,78.2,0.5
			c9.6,0,10.8-6.7,10.8-6.7l1.4-116.2c0,0,1-5.2,2.6-6.9c6.9-7.4,25.9-27.8,34-35.7c1.9-1.9,5-1.8,7,0.9c9.6,13,37.1,55.3,62.6,93
			c23.4,34.7,45.2,65.4,46.8,67.6C3338.9,619.9,3343,620.1,3346.1,620L3346.1,620L3346.1,620z M2205.8,619.5
			c5.9,0.2,50.6,0.1,70.5,0.1c6.7,0.1,10.1-4.9,10.4-9.4c4.2-84.9,2.4-489.4-0.3-553.2c-0.2-5.5-2.6-7.6-6.4-8.1
			c-17-2.3-65.4-1.7-80.9,2.3c-3,0.8-4.8,3.1-4.9,6.1c-3.8,164.6-1.2,544.1-0.4,551.3C2194.6,615.8,2198.3,619.3,2205.8,619.5
			L2205.8,619.5L2205.8,619.5z M3592.7,608.1c-0.1,4.8-1.2,9.5-10.5,9.9c-18.4,0.2-58.6,0.5-75.9-0.2c-6.6-0.1-8.2-3.5-8.3-8.4
			c-0.8-33.9,5.5-164.2,7.6-213c5.2-118.3,51.1-173.5,156.5-175.7c79.9-1.9,130.1,33.4,155.4,56v0l0,0c3.3,2.9,5.9,7.6,4,13.2
			c-1.8,5.6-25.2,40.7-34.5,52.7c-1.9,2.4-7.8,4-11.5,1.9c-15.9-9.3-54.3-34.2-86.2-36.7c-8.3-0.7-16.7-0.3-24.9,0.7
			c-40.2,5-58.9,25.2-64.2,46.3C3585,416.1,3592.7,608.1,3592.7,608.1z M2707.1,422.3c-0.6-109,75.3-200.9,198.6-201.7
			c76.9-0.5,132.8,34.4,142.7,50.8c2,3.9,1,7.1-0.4,11c-6.5,13.8-23,40.3-34.7,55.4c-5,6.4-10.4,0.9-16.7-3.3
			c-17.5-11.6-50.7-25.9-83.4-25.9c-59.3,0-103.5,40.7-103,115.5c0.5,71.8,42.8,111.2,103.2,112.7c31.6,0.8,62.2-17.4,78.6-32.2
			c5.2-4.5,10.5-2.3,16.4,2.4c11.6,11.8,28.2,30.1,37.4,42.7c6,7,1.5,13.8-0.7,16.6c-25,31.7-73.3,58.3-137.3,58.7
			C2774.2,625.8,2707.8,531.7,2707.1,422.3"/>
	</g>
</g>
<path class="st1" d="M1008.4,450.7c-27.6,0.2-50.9-16.2-59.5-41.9c-0.3-1-0.6-1.9-0.9-2.9c-9.4-32.8,8.8-67.2,41.4-78.2l523.1-175.3
	c6.2-1.8,12.6-2.7,19.1-2.8c28.3-0.2,52.3,16.6,61.1,42.8l0.8,2.5c9.8,34.2-14.5,64.7-43.7,74.5c0,0-5.3,1.8-520.2,177.6
	C1022.8,449.4,1015.6,450.6,1008.4,450.7L1008.4,450.7z"/>
<path class="st2" d="M1095.6,707.9c-27.8,0.2-51.2-16-59.7-41.3c-0.3-1-0.6-1.9-0.9-2.9c-9.5-33.2,8.7-68,41.4-79l523.2-176.9
	c6.8-2.3,13.7-3.4,20.8-3.5c27.9-0.2,52.3,16.8,61,42.4l0.8,2.7c5.1,17.7,2.1,37.5-8,53.2c-7.5,11.7-31.1,21.9-31.1,21.9
	l-525.1,179.6C1110.6,706.6,1103.1,707.8,1095.6,707.9L1095.6,707.9z"/>
<path class="st3" d="M1531,709.1c-27.8,0.3-52.6-17.4-61.5-43.8L1295,146.7l-0.9-2.9c-9.5-33.1,8.7-67.6,41.3-78.6
	c6.5-2.2,13.3-3.3,20.1-3.4c10.1-0.1,19.8,2.2,29,6.7c15.3,7.6,26.9,20.9,32.4,37.1l174.6,518.6l0.5,1.7c9.8,34.3-8.3,68.9-41,79.8
	C1544.6,707.9,1537.8,709,1531,709.1L1531,709.1z"/>
<path class="st4" d="M1271.5,796.4c-27.8,0.3-52.7-17.4-61.5-43.8L1035.4,234c-11.4-33.6,6.7-70,40.3-81.4c0,0,0.1,0,0.1,0
	c6.4-2.2,13.2-3.3,20-3.4c27.8-0.3,52.7,17.4,61.5,43.8l174.6,518.6c11.4,33.6-6.7,70-40.3,81.4c-0.1,0-0.1,0-0.2,0.1
	C1285,795.2,1278.3,796.3,1271.5,796.4L1271.5,796.4L1271.5,796.4z"/>
<path class="st5" d="M1445,592.3l121.7-41.6l-39.8-118.2L1405,473.6L1445,592.3z"/>
<path class="st6" d="M1185.9,680.9l121.7-41.6l-40.1-119.1l-121.9,41.2L1185.9,680.9z"/>
<path class="st7" d="M1358.3,334.8l121.8-41.6l-39.3-116.8l-122,40.9L1358.3,334.8z"/>
<path class="st8" d="M1099.2,423.3l121.8-41.6l-39.8-118.3l-122,40.9L1099.2,423.3z"/>
</svg>
